<?xml version="1.0" encoding="utf-8"?>
<!-- Generator: Adobe Illustrator 26.3.1, SVG Export Plug-In . SVG Version: 6.00 Build 0)  -->
<svg version="1.1" id="レイヤー_1" xmlns="http://www.w3.org/2000/svg" xmlns:xlink="http://www.w3.org/1999/xlink" x="0px"
	 y="0px" viewBox="0 0 780 438.75" style="enable-background:new 0 0 780 438.75;" xml:space="preserve">
<style type="text/css">
	.st0{fill:#666666;}
</style>
<g>
	<path class="st0" d="M261.58,231.88h5.57v13.34c0,2.27-0.35,3.98-1.09,5.15c-1.44,2.33-3.89,3.71-7.19,3.71
		c-1.83,0-3.39-0.35-4.65-1.09c-2.56-1.5-3.8-3.53-3.8-7.74v-13.37h5.57v13.28c0,2.71,0.85,4.03,2.83,4.03c1.88,0,2.77-0.94,2.77-4
		V231.88z"/>
	<path class="st0" d="M270.83,259.12v-21.79h4.59v1.8h0.09c1.3-1.62,3.09-2.36,5.12-2.36c4.65,0,7.95,3.8,7.95,8.89
		c0,4.65-3.27,8.57-7.95,8.57c-1.91,0-3.59-0.59-4.92-2.03v6.92H270.83z M283.7,245.51c0-2.3-1.77-4.18-4.12-4.18
		c-2.24,0-4.06,1.83-4.06,4.18c0,2.3,1.77,4.15,4.09,4.15S283.7,247.78,283.7,245.51z"/>
	<path class="st0" d="M291.35,253.67v-21.79h4.89v21.79H291.35z"/>
	<path class="st0" d="M307.82,254.17c-4.98,0-8.81-3.68-8.81-8.69c0-5.07,3.92-8.69,8.81-8.69c4.92,0,8.81,3.68,8.81,8.63
		C316.62,250.55,312.73,254.17,307.82,254.17z M311.73,245.48c0-2.18-1.65-4.12-3.95-4.12c-2.15,0-3.89,1.88-3.89,4.12
		c0,2.24,1.71,4.12,3.92,4.12C310.11,249.61,311.73,247.66,311.73,245.48z"/>
	<path class="st0" d="M331.67,253.67v-1.77h-0.06c-0.71,1.44-2.65,2.33-4.8,2.33c-4.83,0-8.19-3.8-8.19-8.75
		c0-4.83,3.5-8.72,8.19-8.72c2,0,3.86,0.79,4.8,2.3h0.06v-1.74h4.89v16.34H331.67z M331.67,245.48c0-2.3-1.86-4.15-4.15-4.15
		c-2.24,0-4,1.86-4,4.21c0,2.27,1.8,4.12,4.06,4.12C329.88,249.66,331.67,247.84,331.67,245.48z"/>
	<path class="st0" d="M352.49,253.67v-1.77h-0.06c-0.91,1.5-2.56,2.3-4.89,2.3c-4.95,0-8.19-3.8-8.19-8.75
		c0-4.89,3.33-8.69,8.1-8.69c1.88,0,3.42,0.56,4.8,1.94v-6.83h4.89v21.79H352.49z M352.52,245.42c0-2.27-1.74-4.09-4.15-4.09
		c-2.3,0-4.12,1.71-4.12,4.09c0,2.47,1.74,4.21,4.09,4.21C350.73,249.63,352.52,247.84,352.52,245.42z"/>
	<path class="st0" d="M371.52,259.12l2.59-6.27l-6.07-15.52h5.21l3.27,9.48h0.06l3.12-9.48h5.18l-8.19,21.79H371.52z"/>
	<path class="st0" d="M394.73,254.17c-4.98,0-8.81-3.68-8.81-8.69c0-5.07,3.92-8.69,8.81-8.69c4.92,0,8.81,3.68,8.81,8.63
		C403.53,250.55,399.64,254.17,394.73,254.17z M398.64,245.48c0-2.18-1.65-4.12-3.95-4.12c-2.15,0-3.89,1.88-3.89,4.12
		c0,2.24,1.71,4.12,3.92,4.12C397.02,249.61,398.64,247.66,398.64,245.48z"/>
	<path class="st0" d="M416.81,253.67v-1.74h-0.06c-0.71,1.5-2,2.27-4.21,2.27c-3.45,0-6.3-2.06-6.3-6.71v-10.16h4.89v9.16
		c0,2.15,0.77,3.15,2.62,3.15s2.8-1.24,2.8-3.24v-9.07h4.89v16.34H416.81z"/>
	<path class="st0" d="M434.28,253.67v-21.79h5.57v21.79H434.28z"/>
	<path class="st0" d="M463.79,253.67v-8.81c0-2.56-0.83-3.5-2.5-3.5c-1.86,0-2.71,1.12-2.71,3.27v9.04h-4.89v-9.01
		c0-2.12-0.77-3.3-2.44-3.3c-1.91,0-2.77,1.24-2.77,3.5v8.81h-4.89v-16.34h4.57v1.74h0.06c0.85-1.53,2.42-2.3,4.51-2.3
		c2.12,0,3.68,1.06,4.71,2.92c1.18-1.86,2.94-2.92,5.18-2.92c3.65,0,6.07,2.24,6.07,6.8v10.1H463.79z"/>
	<path class="st0" d="M484.41,253.67v-1.77h-0.06c-0.71,1.44-2.65,2.33-4.8,2.33c-4.83,0-8.19-3.8-8.19-8.75
		c0-4.83,3.5-8.72,8.19-8.72c2,0,3.86,0.79,4.8,2.3h0.06v-1.74h4.89v16.34H484.41z M484.41,245.48c0-2.3-1.86-4.15-4.15-4.15
		c-2.24,0-4,1.86-4,4.21c0,2.27,1.8,4.12,4.06,4.12C482.61,249.66,484.41,247.84,484.41,245.48z"/>
	<path class="st0" d="M504.87,251.76c-0.74,1.56-2.56,2.44-4.56,2.44c-4.77,0-8.22-3.68-8.22-8.6c0-5.01,3.5-8.81,8.22-8.81
		c2.12,0,3.74,0.79,4.54,2.06h0.06v-1.53h4.89v14.61c0,2.21-0.29,3.89-0.88,5.01c-1.18,2.27-4.39,4-8.48,4
		c-4.62,0-7.63-2.62-8.04-5.74h5.65c0.56,1.21,1.65,1.62,2.86,1.62c2.47,0,3.98-1.62,3.98-4.59V251.76z M504.9,245.57
		c0-2.39-1.62-4.21-4-4.21c-2.18,0-3.92,1.83-3.92,4.06c0,2.3,1.56,4.21,3.92,4.21C503.28,249.63,504.9,247.93,504.9,245.57z"/>
	<path class="st0" d="M517.21,246.98c0.27,1.85,1.83,3.09,3.83,3.09c1.33,0,2.18-0.5,2.97-1.53h5.01c-1.56,3.56-4.54,5.65-7.98,5.65
		c-4.71,0-8.66-3.8-8.66-8.66c0-4.71,3.77-8.78,8.57-8.78c4.89,0,8.63,3.86,8.63,8.92c0,0.47-0.03,0.85-0.12,1.3H517.21z
		 M524.69,243.69c-0.38-1.68-1.86-2.8-3.74-2.8c-1.77,0-3.3,1.06-3.68,2.8H524.69z"/>
</g>
<path class="st0" d="M451.76,173.18c-0.1,0-0.19-0.01-0.28-0.01v25.86l-25.33-25.33c-3.02-3.02-7.92-3.02-10.94,0l-34.15,34.15
	l-17.98-17.98c-3.49-3.49-9.17-3.49-12.66,0l-21.9,21.9v-52.25c0-3.56,2.9-6.45,6.45-6.45h100.17c0.17-0.7,0.42-1.38,0.76-2H334.97
	c-4.66,0-8.45,3.79-8.45,8.45v54.25v2.83v1.82c0,4.66,3.79,8.45,8.45,8.45h27.06h2.83h32.4h2.83h44.93c4.66,0,8.45-3.79,8.45-8.45
	v-14.57v-2.83v-27.87c-0.16,0.01-0.32,0.02-0.49,0.02H451.76z M364.03,224.87h-29.06c-3.56,0-6.45-2.9-6.45-6.45v-3.82l23.32-23.32
	c1.36-1.36,3.14-2.03,4.92-2.03c1.78,0,3.56,0.68,4.92,2.03l17.98,17.98L364.03,224.87z M451.48,218.42c0,3.56-2.9,6.45-6.45,6.45
	h-46.93h-2.83h-28.4l14.2-14.2l1.41-1.41l34.15-34.15c1.08-1.08,2.52-1.68,4.05-1.68s2.97,0.6,4.05,1.68l26.74,26.74V218.42z"/>
<path class="st0" d="M369.24,183.94c6.83,0,12.38-5.55,12.38-12.38c0-6.83-5.55-12.38-12.38-12.38s-12.38,5.55-12.38,12.38
	C356.86,178.39,362.41,183.94,369.24,183.94z M369.24,161.18c5.72,0,10.38,4.66,10.38,10.38s-4.66,10.38-10.38,10.38
	s-10.38-4.66-10.38-10.38S363.51,161.18,369.24,161.18z"/>
<path class="st0" d="M461.35,153.57h-6.85v-6.85c0-0.83-0.68-1.51-1.51-1.51h-1.23c-0.83,0-1.51,0.68-1.51,1.51v6.85h-6.85
	c-0.83,0-1.51,0.68-1.51,1.51v1.23c0,0.83,0.68,1.51,1.51,1.51h6.85v6.85c0,0.83,0.68,1.51,1.51,1.51h1.23
	c0.83,0,1.51-0.68,1.51-1.51v-6.85h6.85c0.83,0,1.51-0.68,1.51-1.51v-1.23C462.86,154.25,462.18,153.57,461.35,153.57z"/>
</svg>
