<?xml version="1.0" encoding="UTF-8" standalone="no"?>
<!-- Generator: Adobe Illustrator 26.3.1, SVG Export Plug-In . SVG Version: 6.00 Build 0)  -->

<svg
   version="1.1"
   id="レイヤー_1"
   x="0px"
   y="0px"
   viewBox="0 0 780 438.75"
   style="enable-background:new 0 0 780 438.75;"
   xml:space="preserve"
   sodipodi:docname="uploadfile.svg"
   inkscape:version="1.2.1 (9c6d41e410, 2022-07-14)"
   xmlns:inkscape="http://www.inkscape.org/namespaces/inkscape"
   xmlns:sodipodi="http://sodipodi.sourceforge.net/DTD/sodipodi-0.dtd"
   xmlns="http://www.w3.org/2000/svg"
   xmlns:svg="http://www.w3.org/2000/svg"><defs
   id="defs43">
	
	
	
	
	
	
	
	
	
	
	
	
	
	
</defs><sodipodi:namedview
   id="namedview41"
   pagecolor="#505050"
   bordercolor="#eeeeee"
   borderopacity="1"
   inkscape:showpageshadow="0"
   inkscape:pageopacity="0"
   inkscape:pagecheckerboard="0"
   inkscape:deskcolor="#505050"
   showgrid="false"
   inkscape:zoom="1.6307692"
   inkscape:cx="390.3066"
   inkscape:cy="219.5283"
   inkscape:window-width="1920"
   inkscape:window-height="1017"
   inkscape:window-x="1912"
   inkscape:window-y="-8"
   inkscape:window-maximized="1"
   inkscape:current-layer="レイヤー_1" />
<style
   type="text/css"
   id="style2">
	.st0{fill:#666666;}
</style>
<g
   id="g922"
   transform="translate(38.632075,4.9056604)"><g
     id="g907"><path
       class="st0"
       d="m 261.58,231.88 h 5.57 v 13.34 c 0,2.27 -0.35,3.98 -1.09,5.15 -1.44,2.33 -3.89,3.71 -7.19,3.71 -1.83,0 -3.39,-0.35 -4.65,-1.09 -2.56,-1.5 -3.8,-3.53 -3.8,-7.74 v -13.37 h 5.57 v 13.28 c 0,2.71 0.85,4.03 2.83,4.03 1.88,0 2.77,-0.94 2.77,-4 v -13.31 z"
       id="path4" /><path
       class="st0"
       d="m 270.83,259.12 v -21.79 h 4.59 v 1.8 h 0.09 c 1.3,-1.62 3.09,-2.36 5.12,-2.36 4.65,0 7.95,3.8 7.95,8.89 0,4.65 -3.27,8.57 -7.95,8.57 -1.91,0 -3.59,-0.59 -4.92,-2.03 v 6.92 z m 12.87,-13.61 c 0,-2.3 -1.77,-4.18 -4.12,-4.18 -2.24,0 -4.06,1.83 -4.06,4.18 0,2.3 1.77,4.15 4.09,4.15 2.32,0 4.09,-1.88 4.09,-4.15 z"
       id="path6" /><path
       class="st0"
       d="m 291.35,253.67 v -21.79 h 4.89 v 21.79 z"
       id="path8" /><path
       class="st0"
       d="m 307.82,254.17 c -4.98,0 -8.81,-3.68 -8.81,-8.69 0,-5.07 3.92,-8.69 8.81,-8.69 4.92,0 8.81,3.68 8.81,8.63 -0.01,5.13 -3.9,8.75 -8.81,8.75 z m 3.91,-8.69 c 0,-2.18 -1.65,-4.12 -3.95,-4.12 -2.15,0 -3.89,1.88 -3.89,4.12 0,2.24 1.71,4.12 3.92,4.12 2.3,0.01 3.92,-1.94 3.92,-4.12 z"
       id="path10" /><path
       class="st0"
       d="m 331.67,253.67 v -1.77 h -0.06 c -0.71,1.44 -2.65,2.33 -4.8,2.33 -4.83,0 -8.19,-3.8 -8.19,-8.75 0,-4.83 3.5,-8.72 8.19,-8.72 2,0 3.86,0.79 4.8,2.3 h 0.06 v -1.74 h 4.89 v 16.34 h -4.89 z m 0,-8.19 c 0,-2.3 -1.86,-4.15 -4.15,-4.15 -2.24,0 -4,1.86 -4,4.21 0,2.27 1.8,4.12 4.06,4.12 2.3,0 4.09,-1.82 4.09,-4.18 z"
       id="path12" /><path
       class="st0"
       d="m 352.49,253.67 v -1.77 h -0.06 c -0.91,1.5 -2.56,2.3 -4.89,2.3 -4.95,0 -8.19,-3.8 -8.19,-8.75 0,-4.89 3.33,-8.69 8.1,-8.69 1.88,0 3.42,0.56 4.8,1.94 v -6.83 h 4.89 v 21.79 h -4.65 z m 0.03,-8.25 c 0,-2.27 -1.74,-4.09 -4.15,-4.09 -2.3,0 -4.12,1.71 -4.12,4.09 0,2.47 1.74,4.21 4.09,4.21 2.39,0 4.18,-1.79 4.18,-4.21 z"
       id="path14" /></g><g
     id="g899"
     transform="translate(-64.386792)"><path
       class="st0"
       d="m 434.28,253.67 v -21.79 h 5.57 v 21.79 z"
       id="path22" /><path
       class="st0"
       d="m 463.79,253.67 v -8.81 c 0,-2.56 -0.83,-3.5 -2.5,-3.5 -1.86,0 -2.71,1.12 -2.71,3.27 v 9.04 h -4.89 v -9.01 c 0,-2.12 -0.77,-3.3 -2.44,-3.3 -1.91,0 -2.77,1.24 -2.77,3.5 v 8.81 h -4.89 v -16.34 h 4.57 v 1.74 h 0.06 c 0.85,-1.53 2.42,-2.3 4.51,-2.3 2.12,0 3.68,1.06 4.71,2.92 1.18,-1.86 2.94,-2.92 5.18,-2.92 3.65,0 6.07,2.24 6.07,6.8 v 10.1 z"
       id="path24" /><path
       class="st0"
       d="m 484.41,253.67 v -1.77 h -0.06 c -0.71,1.44 -2.65,2.33 -4.8,2.33 -4.83,0 -8.19,-3.8 -8.19,-8.75 0,-4.83 3.5,-8.72 8.19,-8.72 2,0 3.86,0.79 4.8,2.3 h 0.06 v -1.74 h 4.89 v 16.34 h -4.89 z m 0,-8.19 c 0,-2.3 -1.86,-4.15 -4.15,-4.15 -2.24,0 -4,1.86 -4,4.21 0,2.27 1.8,4.12 4.06,4.12 2.29,0 4.09,-1.82 4.09,-4.18 z"
       id="path26" /><path
       class="st0"
       d="m 504.87,251.76 c -0.74,1.56 -2.56,2.44 -4.56,2.44 -4.77,0 -8.22,-3.68 -8.22,-8.6 0,-5.01 3.5,-8.81 8.22,-8.81 2.12,0 3.74,0.79 4.54,2.06 h 0.06 v -1.53 h 4.89 v 14.61 c 0,2.21 -0.29,3.89 -0.88,5.01 -1.18,2.27 -4.39,4 -8.48,4 -4.62,0 -7.63,-2.62 -8.04,-5.74 h 5.65 c 0.56,1.21 1.65,1.62 2.86,1.62 2.47,0 3.98,-1.62 3.98,-4.59 v -0.47 z m 0.03,-6.19 c 0,-2.39 -1.62,-4.21 -4,-4.21 -2.18,0 -3.92,1.83 -3.92,4.06 0,2.3 1.56,4.21 3.92,4.21 2.38,0 4,-1.7 4,-4.06 z"
       id="path28" /><path
       class="st0"
       d="m 517.21,246.98 c 0.27,1.85 1.83,3.09 3.83,3.09 1.33,0 2.18,-0.5 2.97,-1.53 h 5.01 c -1.56,3.56 -4.54,5.65 -7.98,5.65 -4.71,0 -8.66,-3.8 -8.66,-8.66 0,-4.71 3.77,-8.78 8.57,-8.78 4.89,0 8.63,3.86 8.63,8.92 0,0.47 -0.03,0.85 -0.12,1.3 h -12.25 z m 7.48,-3.29 c -0.38,-1.68 -1.86,-2.8 -3.74,-2.8 -1.77,0 -3.3,1.06 -3.68,2.8 z"
       id="path30" /></g></g>
<path
   class="st0"
   d="M451.76,173.18c-0.1,0-0.19-0.01-0.28-0.01v25.86l-25.33-25.33c-3.02-3.02-7.92-3.02-10.94,0l-34.15,34.15  l-17.98-17.98c-3.49-3.49-9.17-3.49-12.66,0l-21.9,21.9v-52.25c0-3.56,2.9-6.45,6.45-6.45h100.17c0.17-0.7,0.42-1.38,0.76-2H334.97  c-4.66,0-8.45,3.79-8.45,8.45v54.25v2.83v1.82c0,4.66,3.79,8.45,8.45,8.45h27.06h2.83h32.4h2.83h44.93c4.66,0,8.45-3.79,8.45-8.45  v-14.57v-2.83v-27.87c-0.16,0.01-0.32,0.02-0.49,0.02H451.76z M364.03,224.87h-29.06c-3.56,0-6.45-2.9-6.45-6.45v-3.82l23.32-23.32  c1.36-1.36,3.14-2.03,4.92-2.03c1.78,0,3.56,0.68,4.92,2.03l17.98,17.98L364.03,224.87z M451.48,218.42c0,3.56-2.9,6.45-6.45,6.45  h-46.93h-2.83h-28.4l14.2-14.2l1.41-1.41l34.15-34.15c1.08-1.08,2.52-1.68,4.05-1.68s2.97,0.6,4.05,1.68l26.74,26.74V218.42z"
   id="path34" />
<path
   class="st0"
   d="M369.24,183.94c6.83,0,12.38-5.55,12.38-12.38c0-6.83-5.55-12.38-12.38-12.38s-12.38,5.55-12.38,12.38  C356.86,178.39,362.41,183.94,369.24,183.94z M369.24,161.18c5.72,0,10.38,4.66,10.38,10.38s-4.66,10.38-10.38,10.38  s-10.38-4.66-10.38-10.38S363.51,161.18,369.24,161.18z"
   id="path36" />
<path
   class="st0"
   d="M461.35,153.57h-6.85v-6.85c0-0.83-0.68-1.51-1.51-1.51h-1.23c-0.83,0-1.51,0.68-1.51,1.51v6.85h-6.85  c-0.83,0-1.51,0.68-1.51,1.51v1.23c0,0.83,0.68,1.51,1.51,1.51h6.85v6.85c0,0.83,0.68,1.51,1.51,1.51h1.23  c0.83,0,1.51-0.68,1.51-1.51v-6.85h6.85c0.83,0,1.51-0.68,1.51-1.51v-1.23C462.86,154.25,462.18,153.57,461.35,153.57z"
   id="path38" />
</svg>
